<svg height="512pt" viewBox="-65 0 512 512" width="512pt" xmlns="http://www.w3.org/2000/svg"><path d="m0 435.675781v61.300781c0 8.296876 6.726562 15.023438 15.023438 15.023438h233.492187c8.296875 0 15.023437-6.726562 15.023437-15.023438v-61.300781zm0 0"/><path d="m367.757812 201.113281c-22.816406-27.113281-63.4375-30.617187-90.554687-7.800781l-13.664063 11.492188v-73.035157c0-72.660156-59.109374-131.769531-131.769531-131.769531-72.660156 0-131.769531 59.109375-131.769531 131.769531v273.859375h263.539062v-20.753906l102.90625-99.578125c.339844-.328125.664063-.671875.96875-1.03125 20.539063-24.007813 20.679688-58.976563.34375-83.152344zm0 0"/></svg>